<svg width="279" height="213" viewBox="0 0 279 213" fill="none" xmlns="http://www.w3.org/2000/svg">
<rect opacity="0.56" width="154" height="79" rx="39.5" transform="matrix(-0.994522 -0.104528 -0.104528 0.994522 262 87)" fill="#F2F4F7"/>
<g filter="url(#filter0_dd_7657_43967)">
<rect x="101" y="2" width="54" height="54" rx="27" fill="white"/>
<path d="M107 29C107 17.402 116.402 8 128 8C139.598 8 149 17.402 149 29C149 40.598 139.598 50 128 50C116.402 50 107 40.598 107 29Z" fill="#FEE4E2"/>
<path d="M136.125 19.25H119.875C119.444 19.25 119.031 19.4212 118.726 19.726C118.421 20.0307 118.25 20.444 118.25 20.875V37.125C118.25 37.556 118.421 37.9693 118.726 38.274C119.031 38.5788 119.444 38.75 119.875 38.75H136.125C136.556 38.75 136.969 38.5788 137.274 38.274C137.579 37.9693 137.75 37.556 137.75 37.125V20.875C137.75 20.444 137.579 20.0307 137.274 19.726C136.969 19.4212 136.556 19.25 136.125 19.25ZM119.875 20.875H136.125V28.7339L133.617 26.2253C133.313 25.9208 132.9 25.7497 132.469 25.7497C132.038 25.7497 131.625 25.9208 131.32 26.2253L120.42 37.125H119.875V20.875ZM136.125 37.125H122.719L132.469 27.375L136.125 31.0312V37.125ZM124.75 28.1875C125.232 28.1875 125.703 28.0445 126.104 27.7767C126.505 27.5089 126.817 27.1282 127.002 26.6828C127.186 26.2374 127.235 25.7473 127.141 25.2745C127.047 24.8016 126.814 24.3673 126.474 24.0264C126.133 23.6855 125.698 23.4534 125.226 23.3593C124.753 23.2653 124.263 23.3136 123.817 23.498C123.372 23.6825 122.991 23.995 122.723 24.3958C122.455 24.7966 122.312 25.2679 122.312 25.75C122.312 26.3965 122.569 27.0165 123.026 27.4736C123.484 27.9307 124.104 28.1875 124.75 28.1875ZM124.75 24.9375C124.911 24.9375 125.068 24.9852 125.201 25.0744C125.335 25.1637 125.439 25.2906 125.501 25.4391C125.562 25.5875 125.578 25.7509 125.547 25.9085C125.516 26.0661 125.438 26.2109 125.325 26.3245C125.211 26.4382 125.066 26.5155 124.909 26.5469C124.751 26.5782 124.588 26.5621 124.439 26.5007C124.291 26.4392 124.164 26.335 124.074 26.2014C123.985 26.0678 123.938 25.9107 123.938 25.75C123.938 25.5345 124.023 25.3278 124.175 25.1755C124.328 25.0231 124.535 24.9375 124.75 24.9375Z" fill="#F04438"/>
</g>
<rect opacity="0.56" x="0.914062" y="98.2148" width="68" height="35" rx="17.5" transform="rotate(-6 0.914062 98.2148)" fill="#F2F4F7"/>
<g filter="url(#filter1_dd_7657_43967)">
<rect x="53" y="139" width="220" height="64" rx="32" fill="white"/>
<path d="M61 171C61 157.745 71.7452 147 85 147C98.2548 147 109 157.745 109 171C109 184.255 98.2548 195 85 195C71.7452 195 61 184.255 61 171Z" fill="#ECFDF3"/>
<path d="M93.6998 166.363L88.0123 160.675C87.9368 160.6 87.8472 160.54 87.7486 160.499C87.6499 160.458 87.5442 160.437 87.4375 160.438H77.6875C77.2565 160.438 76.8432 160.609 76.5385 160.913C76.2337 161.218 76.0625 161.632 76.0625 162.063V179.938C76.0625 180.368 76.2337 180.782 76.5385 181.087C76.8432 181.391 77.2565 181.562 77.6875 181.562H92.3125C92.7435 181.562 93.1568 181.391 93.4615 181.087C93.7663 180.782 93.9375 180.368 93.9375 179.938V166.938C93.9376 166.831 93.9166 166.725 93.8759 166.626C93.8351 166.528 93.7753 166.438 93.6998 166.363ZM88.25 163.211L91.1638 166.125H88.25V163.211ZM92.3125 179.938H77.6875V162.063H86.625V166.938C86.625 167.153 86.7106 167.36 86.863 167.512C87.0153 167.664 87.222 167.75 87.4375 167.75H92.3125V179.938ZM89.0625 171.812C89.0625 172.028 88.9769 172.235 88.8245 172.387C88.6722 172.539 88.4655 172.625 88.25 172.625H81.75C81.5345 172.625 81.3278 172.539 81.1755 172.387C81.0231 172.235 80.9375 172.028 80.9375 171.812C80.9375 171.597 81.0231 171.39 81.1755 171.238C81.3278 171.086 81.5345 171 81.75 171H88.25C88.4655 171 88.6722 171.086 88.8245 171.238C88.9769 171.39 89.0625 171.597 89.0625 171.812ZM89.0625 175.062C89.0625 175.278 88.9769 175.485 88.8245 175.637C88.6722 175.789 88.4655 175.875 88.25 175.875H81.75C81.5345 175.875 81.3278 175.789 81.1755 175.637C81.0231 175.485 80.9375 175.278 80.9375 175.062C80.9375 174.847 81.0231 174.64 81.1755 174.488C81.3278 174.336 81.5345 174.25 81.75 174.25H88.25C88.4655 174.25 88.6722 174.336 88.8245 174.488C88.9769 174.64 89.0625 174.847 89.0625 175.062Z" fill="#12B76A"/>
<rect x="121" y="155.5" width="120" height="10" rx="5" fill="#F2F4F7"/>
<rect x="121" y="176.5" width="79.797" height="10" rx="5" fill="#F2F4F7"/>
</g>
<defs>
<filter id="filter0_dd_7657_43967" x="95" y="0" width="66" height="66" filterUnits="userSpaceOnUse" color-interpolation-filters="sRGB">
<feFlood flood-opacity="0" result="BackgroundImageFix"/>
<feColorMatrix in="SourceAlpha" type="matrix" values="0 0 0 0 0 0 0 0 0 0 0 0 0 0 0 0 0 0 127 0" result="hardAlpha"/>
<feMorphology radius="2" operator="erode" in="SourceAlpha" result="effect1_dropShadow_7657_43967"/>
<feOffset dy="2"/>
<feGaussianBlur stdDeviation="2"/>
<feColorMatrix type="matrix" values="0 0 0 0 0.0627451 0 0 0 0 0.0941176 0 0 0 0 0.156863 0 0 0 0.06 0"/>
<feBlend mode="normal" in2="BackgroundImageFix" result="effect1_dropShadow_7657_43967"/>
<feColorMatrix in="SourceAlpha" type="matrix" values="0 0 0 0 0 0 0 0 0 0 0 0 0 0 0 0 0 0 127 0" result="hardAlpha"/>
<feMorphology radius="2" operator="erode" in="SourceAlpha" result="effect2_dropShadow_7657_43967"/>
<feOffset dy="4"/>
<feGaussianBlur stdDeviation="4"/>
<feColorMatrix type="matrix" values="0 0 0 0 0.0627451 0 0 0 0 0.0941176 0 0 0 0 0.156863 0 0 0 0.1 0"/>
<feBlend mode="normal" in2="effect1_dropShadow_7657_43967" result="effect2_dropShadow_7657_43967"/>
<feBlend mode="normal" in="SourceGraphic" in2="effect2_dropShadow_7657_43967" result="shape"/>
</filter>
<filter id="filter1_dd_7657_43967" x="47" y="137" width="232" height="76" filterUnits="userSpaceOnUse" color-interpolation-filters="sRGB">
<feFlood flood-opacity="0" result="BackgroundImageFix"/>
<feColorMatrix in="SourceAlpha" type="matrix" values="0 0 0 0 0 0 0 0 0 0 0 0 0 0 0 0 0 0 127 0" result="hardAlpha"/>
<feMorphology radius="2" operator="erode" in="SourceAlpha" result="effect1_dropShadow_7657_43967"/>
<feOffset dy="2"/>
<feGaussianBlur stdDeviation="2"/>
<feColorMatrix type="matrix" values="0 0 0 0 0.0627451 0 0 0 0 0.0941176 0 0 0 0 0.156863 0 0 0 0.06 0"/>
<feBlend mode="normal" in2="BackgroundImageFix" result="effect1_dropShadow_7657_43967"/>
<feColorMatrix in="SourceAlpha" type="matrix" values="0 0 0 0 0 0 0 0 0 0 0 0 0 0 0 0 0 0 127 0" result="hardAlpha"/>
<feMorphology radius="2" operator="erode" in="SourceAlpha" result="effect2_dropShadow_7657_43967"/>
<feOffset dy="4"/>
<feGaussianBlur stdDeviation="4"/>
<feColorMatrix type="matrix" values="0 0 0 0 0.0627451 0 0 0 0 0.0941176 0 0 0 0 0.156863 0 0 0 0.1 0"/>
<feBlend mode="normal" in2="effect1_dropShadow_7657_43967" result="effect2_dropShadow_7657_43967"/>
<feBlend mode="normal" in="SourceGraphic" in2="effect2_dropShadow_7657_43967" result="shape"/>
</filter>
</defs>
</svg>
